<?xml version="1.0" encoding="utf-8"?>
<!-- Generator: Adobe Illustrator 17.1.0, SVG Export Plug-In . SVG Version: 6.00 Build 0)  -->
<!DOCTYPE svg PUBLIC "-//W3C//DTD SVG 1.1//EN" "http://www.w3.org/Graphics/SVG/1.1/DTD/svg11.dtd">
<svg version="1.1" id="Calque_1" xmlns="http://www.w3.org/2000/svg" xmlns:xlink="http://www.w3.org/1999/xlink" x="0px" y="0px"
	 viewBox="0 0 708.66 184.25" enable-background="new 0 0 708.66 184.25" xml:space="preserve">
<path fill="#007A3E" stroke="#007A3E" stroke-width="5" d="M537.986,134.159c-10.232,3.109-20.595,4.534-33.547,4.534
	c-30.438,0-50.774-18.004-50.774-49.09c0-31.086,20.336-49.22,50.774-49.22c12.435,0,23.185,0.907,33.418,3.109v18.004
	c-8.937-3.368-18.263-5.57-27.849-5.57c-22.666,0-29.791,16.19-29.791,33.029c0,20.983,11.01,34.195,32.77,34.195V98.89h-13.242
	v-18.48h38.241V134.159z"/>
<g>
	<path fill="#007A3E" stroke="#007A3E" stroke-width="0.7" d="M51.325,34.976c6.621,1.292,14.177,3.255,21.873,6.242
		c22.641,8.786,37.923,23.095,37.923,23.095S97.722,46.4,75.08,37.614c-7.391-2.868-13.945-5.597-20.644-6.371L51.325,34.976z"/>
	<path fill="#007A3E" stroke="#007A3E" stroke-width="0.7" d="M28.686,50.4c7.845,0.943,17.69,2.775,27.812,6.309
		c22.961,8.016,38.655,21.758,38.655,21.758s-13.885-17.384-36.847-25.4C48.514,49.648,39.491,46.88,31.4,46.67L28.686,50.4z"/>
</g>
<path fill="#E30613" stroke="#E30613" stroke-width="0.7" d="M113.706,38.04c4.171,3.052,8.584,6.801,13.147,11.405
	c5.355,5.403,19.853,16.567,29.339,15.449c10.816-1.274,13.763-6.926,20.983-14.994l-2.187-16.435L113.706,38.04z"/>
<path fill="#E30613" stroke="#E30613" stroke-width="0.7" d="M183.275,87.749c-10.306,16.39-28.102,38.589-59.098,39.89
	c-17.413,0.731-33.452-10.288-49.32-16.989c-10.751-4.541-19.689-7.398-27.131-9.354l-6.014,29.177l149.507,17.405L183.275,87.749z"
	/>
<path fill="#007A3E" stroke="#007A3E" stroke-width="0.7" d="M19.118,75.635c6.986,0.309,15.025,1.126,23.372,2.886
	c24.743,5.22,36.631,12.376,36.631,12.376S68.513,80.034,43.84,74.829c-7.703-1.625-14.338-3.225-21.109-3.585L19.118,75.635z"/>
<path fill="#007A3E" stroke="#007A3E" stroke-width="0.7" d="M117.598,47.964c-16.46-16.354-36.507-23.112-36.507-23.112
	s20.781-0.887,46.194,24.754c5.355,5.403,19.853,16.567,29.339,15.449c12.476-1.47,22.798-18.882,28.342-23.327
	c13.013-10.434,25.714-2.041,25.714-2.041s-15.325,24.374-20.135,33.673c-5.238,10.128-22.711,53.417-66.367,55.25
	c-17.413,0.732-33.452-10.287-49.32-16.989c-21.845-9.225-36.206-11.5-45.74-13.394c0,0,17.873-1.549,46.103,8.749
	c17.562,6.406,35.839,18.659,55.268,15.884c31.408-4.485,48.475-38.86,54.962-50.753c8.011-14.687,17.959-29.723,17.959-29.723
	s-6.137-3.589-14.444,2.035c-6.937,4.697-16.027,22.859-30.598,24.802C142.994,71.272,129.698,59.42,117.598,47.964z"/>
<polygon fill="#007A3E" stroke="#007A3E" stroke-width="0.7" points="51.411,144.729 169.977,137.296 184.205,162.295 
	34.812,164.999 "/>
<path fill="#007A3E" stroke="#007A3E" stroke-width="5" d="M227.209,42.089h24.998v93.647h-24.998V42.089z"/>
<path fill="#007A3E" stroke="#007A3E" stroke-width="5" d="M271.874,116.954c8.031,3.238,16.709,5.57,25.387,5.57
	c6.606,0,15.543-1.813,15.543-10.232c0-15.155-41.707-16.709-41.707-46.241c0-18.781,16.839-26.294,33.288-26.294
	c9.326,0,18.651,1.166,27.848,2.85v17.745c-7.642-2.72-15.802-5.051-23.962-5.051c-4.922,0-12.175,1.943-12.175,8.03
	c0,14.118,43.261,15.932,43.261,46.5c0,9.455-4.922,28.236-38.34,28.236c-12.046,0-22.278-1.166-29.143-2.331V116.954z"/>
<path fill="#007A3E" stroke="#007A3E" stroke-width="5" d="M385.337,42.089h24.999l35.879,93.647h-25.128l-9.068-23.832h-36.655
	l-9.196,23.832h-16.709L385.337,42.089z M406.32,97.137l-12.692-33.158l-12.694,33.158H406.32z"/>
<path fill="#007A3E" stroke="#007A3E" stroke-width="5" d="M563.344,42.089h44.557c11.657,0,25.517,6.606,25.517,23.444
	c0,11.399-7.383,21.889-17.486,26.683l30.05,43.521h-30.18l-20.206-37.434h-8.808v37.434h-23.444V42.089z M586.788,84.314h8.291
	c8.677,0,13.341-9.196,13.341-16.061c0-6.347-2.85-10.621-13.989-10.621h-7.643V84.314z"/>
<path fill="#007A3E" stroke="#007A3E" stroke-width="5" d="M661.447,42.089h24.998v93.647h-24.998V42.089z"/>
</svg>
